<svg id="Layer_1" data-name="Layer 1" xmlns="http://www.w3.org/2000/svg" xmlns:xlink="http://www.w3.org/1999/xlink" viewBox="0 0 109 109"><defs><style>.cls-1{fill:#066;}.cls-2{fill:url(#linear-gradient);}</style><linearGradient id="linear-gradient" x1="124.42" y1="97.53" x2="5.39" y2="28.81" gradientUnits="userSpaceOnUse"><stop offset="0" stop-color="#8bc53f" stop-opacity="0"/><stop offset="1" stop-color="#026" stop-opacity="0.5"/></linearGradient></defs><path class="cls-1" d="M83.14,5.8H36.75A31.3,31.3,0,0,0,5.45,37.11V83.5a31.3,31.3,0,0,0,31.3,31.3h77.7V37.11A31.31,31.31,0,0,0,83.14,5.8ZM95,81A40,40,0,0,1,80.35,95.64l-20-34.73V101a40.11,40.11,0,1,1,40.11-40.1H60.3Z" transform="translate(-5.45 -5.8)"/><path class="cls-2" d="M83.14,5.8H36.75A31.3,31.3,0,0,0,5.45,37.11V83.5a31.3,31.3,0,0,0,31.3,31.3h77.7V37.11A31.31,31.31,0,0,0,83.14,5.8ZM95,81A40,40,0,0,1,80.35,95.64l-20-34.73V101a40.11,40.11,0,1,1,40.11-40.1H60.3Z" transform="translate(-5.45 -5.8)"/></svg>